<?xml version="1.0" standalone="no"?>
<!DOCTYPE svg PUBLIC "-//W3C//DTD SVG 20010904//EN"
 "http://www.w3.org/TR/2001/REC-SVG-20010904/DTD/svg10.dtd">
<svg version="1.0" xmlns="http://www.w3.org/2000/svg"
 width="225.000000pt" height="225.000000pt" viewBox="0 0 225.000000 225.000000"
 preserveAspectRatio="xMidYMid meet">

<g transform="translate(0.000000,225.000000) scale(0.100000,-0.100000)"
fill="#000000" stroke="none">
<path d="M1014 1745 c-4 -10 -1 -21 7 -26 20 -12 34 -5 34 17 0 24 -33 31 -41
9z"/>
<path d="M1080 1746 c0 -13 11 -16 54 -16 107 0 233 -58 291 -135 59 -77 79
-182 51 -263 -13 -35 -13 -41 0 -46 39 -15 59 149 29 234 -47 132 -184 226
-347 237 -68 5 -78 4 -78 -11z"/>
<path d="M920 1709 c-72 -39 -125 -92 -155 -154 -40 -82 -46 -205 -11 -205 11
0 14 15 14 64 0 43 6 78 21 112 26 59 99 136 152 160 25 11 39 24 39 36 0 10
-1 18 -2 18 -2 0 -28 -14 -58 -31z"/>
<path d="M1002 1458 c-16 -16 -15 -53 2 -68 21 -16 56 -9 72 15 27 41 -39 88
-74 53z"/>
<path d="M847 1423 c-19 -18 1 -37 81 -77 l89 -45 6 -113 c4 -62 7 -144 7
-183 0 -67 1 -71 30 -87 l30 -17 0 207 c0 114 -4 212 -8 218 -11 15 -189 104
-210 104 -10 0 -22 -3 -25 -7z"/>
<path d="M1196 1324 c-9 -8 -16 -19 -16 -24 0 -11 29 -40 40 -40 11 0 40 29
40 40 0 5 -7 16 -16 24 -8 9 -19 16 -24 16 -5 0 -16 -7 -24 -16z"/>
<path d="M750 1300 c0 -16 5 -21 23 -18 12 2 22 10 22 18 0 8 -10 16 -22 18
-18 3 -23 -2 -23 -18z"/>
<path d="M1262 1259 l-72 -40 0 -154 c0 -85 4 -155 8 -155 26 0 32 30 32 155
l0 130 60 33 c67 37 75 45 57 60 -9 8 -32 0 -85 -29z"/>
<path d="M1440 1260 c-18 -11 -4 -42 17 -38 10 2 19 10 21 19 4 19 -19 31 -38
19z"/>
<path d="M810 1214 c47 -47 98 -82 163 -109 31 -13 37 -13 37 -1 0 7 -25 26
-56 41 -31 15 -77 47 -102 71 -25 24 -55 44 -66 44 -17 0 -13 -8 24 -46z"/>
<path d="M1376 1186 c-16 -13 -50 -34 -77 -47 -44 -20 -66 -49 -39 -49 33 0
170 89 170 111 0 16 -24 9 -54 -15z"/>
<path d="M1203 725 c0 -27 2 -38 4 -22 2 15 2 37 0 50 -2 12 -4 0 -4 -28z"/>
<path d="M370 590 c0 -13 -7 -20 -20 -20 -11 0 -20 7 -20 15 0 8 -4 15 -10 15
-5 0 -10 -18 -10 -40 0 -22 5 -40 10 -40 6 0 10 9 10 20 0 29 37 27 43 -2 2
-13 5 -2 6 25 0 26 -1 47 -4 47 -3 0 -5 -9 -5 -20z"/>
<path d="M783 565 c0 -27 2 -38 4 -22 2 15 2 37 0 50 -2 12 -4 0 -4 -28z"/>
<path d="M862 597 c-7 -8 -9 -17 -5 -20 3 -4 0 -13 -6 -21 -18 -22 -5 -36 32
-34 25 1 33 6 33 20 0 10 -6 16 -12 14 -8 -3 -12 4 -11 21 2 30 -15 40 -31 20z
m23 -7 c3 -5 1 -10 -4 -10 -6 0 -11 5 -11 10 0 6 2 10 4 10 3 0 8 -4 11 -10z
m-1 -45 c3 -9 0 -15 -9 -15 -8 0 -15 7 -15 15 0 8 4 15 9 15 5 0 11 -7 15 -15z"/>
<path d="M977 603 c-11 -10 -8 -83 3 -83 6 0 10 10 10 22 l0 21 23 -21 c24
-22 51 -32 30 -11 -7 7 -9 24 -6 39 4 22 1 28 -19 33 -29 8 -33 8 -41 0z m53
-23 c0 -5 -9 -10 -20 -10 -11 0 -20 5 -20 10 0 6 9 10 20 10 11 0 20 -4 20
-10z"/>
<path d="M1586 594 c-19 -18 -20 -28 -6 -55 13 -23 55 -25 64 -4 6 18 -5 20
-21 4 -16 -16 -33 -2 -33 28 0 23 3 25 31 19 27 -5 30 -4 19 9 -16 19 -35 19
-54 -1z"/>
<path d="M664 587 c-8 -21 -1 -60 11 -64 6 -2 10 12 9 33 -2 40 -11 54 -20 31z"/>
<path d="M1460 560 c0 -22 5 -40 10 -40 6 0 10 12 10 26 0 32 22 27 31 -7 6
-21 7 -21 8 9 1 26 -3 32 -19 32 -11 0 -20 5 -20 10 0 6 -4 10 -10 10 -5 0
-10 -18 -10 -40z"/>
<path d="M1815 589 c-2 -8 -3 -23 -1 -34 3 -11 5 -23 5 -27 1 -5 4 -8 9 -8 8
0 7 68 -2 77 -3 3 -8 0 -11 -8z"/>
<path d="M404 566 c-10 -26 4 -48 28 -44 33 4 33 52 0 56 -13 2 -25 -3 -28
-12z m41 -16 c0 -7 -6 -15 -12 -17 -8 -3 -13 4 -13 17 0 13 5 20 13 18 6 -3
12 -11 12 -18z"/>
<path d="M480 567 c0 -8 10 -19 23 -26 l22 -12 -22 5 c-13 2 -23 0 -23 -5 0
-5 11 -9 25 -9 32 0 34 30 3 38 -23 6 -23 6 2 13 l25 7 -27 1 c-17 1 -28 -4
-28 -12z"/>
<path d="M550 541 c0 -23 5 -41 10 -41 6 0 10 4 10 9 0 5 9 11 21 14 32 9 22
51 -13 55 -27 3 -28 1 -28 -37z m45 9 c0 -7 -6 -15 -12 -17 -8 -3 -13 4 -13
17 0 13 5 20 13 18 6 -3 12 -11 12 -18z"/>
<path d="M632 550 c0 -19 2 -27 5 -17 2 9 2 25 0 35 -3 9 -5 1 -5 -18z"/>
<path d="M725 571 c19 -8 19 -8 -3 -15 -30 -10 -23 -30 12 -34 25 -3 27 -1 24
25 -2 22 -9 29 -28 30 -22 2 -23 2 -5 -6z m15 -31 c0 -5 -4 -10 -10 -10 -5 0
-10 5 -10 10 0 6 5 10 10 10 6 0 10 -4 10 -10z"/>
<path d="M1064 565 c-9 -23 3 -45 26 -45 11 0 20 4 20 10 0 5 -7 7 -15 4 -10
-4 -15 0 -15 15 0 12 5 21 11 21 5 0 7 -4 4 -10 -3 -5 1 -10 9 -10 10 0 13 6
10 15 -4 8 -15 15 -25 15 -11 0 -22 -7 -25 -15z"/>
<path d="M1130 565 c0 -8 6 -15 14 -15 8 0 18 -5 22 -11 4 -8 -1 -9 -17 -4
-19 6 -21 5 -13 -5 14 -14 46 -10 51 7 2 6 -6 15 -19 19 -22 7 -22 7 -3 15 17
7 16 8 -7 8 -19 1 -28 -4 -28 -14z"/>
<path d="M1204 565 c-9 -23 3 -45 26 -45 11 0 20 4 20 10 0 5 -7 7 -15 4 -10
-4 -15 0 -15 15 0 12 5 21 10 21 6 0 10 -4 10 -10 0 -5 4 -10 10 -10 5 0 7 7
4 15 -4 8 -15 15 -25 15 -11 0 -22 -7 -25 -15z"/>
<path d="M1295 571 c19 -8 19 -8 -2 -15 -33 -11 -29 -36 5 -36 24 0 28 4 27
28 0 21 -5 27 -25 29 -22 2 -23 2 -5 -6z m15 -31 c0 -5 -4 -10 -10 -10 -5 0
-10 5 -10 10 0 6 5 10 10 10 6 0 10 -4 10 -10z"/>
<path d="M1340 550 c0 -16 5 -30 10 -30 6 0 10 11 10 24 0 13 6 27 13 29 6 3
2 6 -10 6 -19 1 -23 -4 -23 -29z"/>
<path d="M1394 565 c-14 -35 33 -65 52 -34 4 7 0 9 -14 5 -13 -4 -22 -1 -25 8
-8 19 6 28 29 19 12 -4 15 -3 10 5 -10 17 -46 15 -52 -3z"/>
<path d="M1665 570 c-3 -6 -3 -19 0 -30 7 -21 39 -27 51 -9 4 7 0 9 -14 5 -17
-6 -21 -3 -19 14 1 22 13 27 20 8 2 -7 8 -10 12 -6 11 11 -4 28 -25 28 -10 0
-22 -5 -25 -10z"/>
<path d="M1741 548 c1 -30 2 -30 8 -9 9 34 31 39 31 7 0 -14 5 -26 10 -26 6 0
10 6 10 14 0 30 -13 46 -36 46 -21 0 -24 -5 -23 -32z"/>
<path d="M1861 548 c1 -22 3 -26 6 -13 3 11 10 26 15 33 8 9 6 12 -6 12 -12 0
-16 -9 -15 -32z"/>
<path d="M1904 565 c-14 -35 33 -65 52 -34 4 8 0 9 -15 4 -17 -5 -21 -2 -21
14 0 23 16 29 23 9 2 -7 8 -10 12 -6 11 11 -4 28 -26 28 -11 0 -22 -7 -25 -15z"/>
</g>
</svg>
